<?xml version="1.0" encoding="UTF-8" standalone="no"?>
<!DOCTYPE svg PUBLIC "-//W3C//DTD SVG 1.1//EN" "http://www.w3.org/Graphics/SVG/1.1/DTD/svg11.dtd">
<svg width="256px" height="256px" viewBox="0 0 128 128" version="1.1" xmlns="http://www.w3.org/2000/svg" xmlns:xlink="http://www.w3.org/1999/xlink" xml:space="preserve" xmlns:serif="http://www.serif.com/" style="fill-rule:evenodd;clip-rule:evenodd;">
    <g transform="matrix(0.4,0,0,0.4,2,2)">
        <path d="M80.5,79.17C35.613,79.17 -0.83,115.613 -0.83,160.5C-0.83,205.387 35.613,241.83 80.5,241.83C125.387,241.83 161.83,205.387 161.83,160.5C161.83,115.613 125.387,79.17 80.5,79.17ZM80.5,81.83C123.919,81.83 159.17,117.081 159.17,160.5C159.17,203.919 123.919,239.17 80.5,239.17C37.081,239.17 1.83,203.919 1.83,160.5C1.83,117.081 37.081,81.83 80.5,81.83Z" style="fill:white;"/>
        <path d="M220.5,139.17C175.613,139.17 139.17,175.613 139.17,220.5C139.17,265.387 175.613,301.83 220.5,301.83C265.387,301.83 301.83,265.387 301.83,220.5C301.83,175.613 265.387,139.17 220.5,139.17ZM220.5,141.83C263.919,141.83 299.17,177.081 299.17,220.5C299.17,263.919 263.919,299.17 220.5,299.17C177.081,299.17 141.83,263.919 141.83,220.5C141.83,177.081 177.081,141.83 220.5,141.83Z" style="fill:white;"/>
        <circle cx="160.5" cy="160.5" r="10.83" style="fill:white;"/>
        <path d="M160.5,148.67C153.971,148.67 148.67,153.971 148.67,160.5C148.67,167.029 153.971,172.33 160.5,172.33C167.029,172.33 172.33,167.029 172.33,160.5C172.33,153.971 167.029,148.67 160.5,148.67ZM160.5,152.33C165.009,152.33 168.67,155.991 168.67,160.5C168.67,165.009 165.009,168.67 160.5,168.67C155.991,168.67 152.33,165.009 152.33,160.5C152.33,155.991 155.991,152.33 160.5,152.33Z" style="fill:white;"/>
        <circle cx="80.5" cy="160.5" r="20.83" style="fill:white;"/>
        <path d="M80.5,138.67C68.452,138.67 58.67,148.452 58.67,160.5C58.67,172.548 68.452,182.33 80.5,182.33C92.548,182.33 102.33,172.548 102.33,160.5C102.33,148.452 92.548,138.67 80.5,138.67ZM80.5,142.33C90.528,142.33 98.67,150.472 98.67,160.5C98.67,170.528 90.528,178.67 80.5,178.67C70.472,178.67 62.33,170.528 62.33,160.5C62.33,150.472 70.472,142.33 80.5,142.33Z" style="fill:white;"/>
        <circle cx="200.5" cy="80.5" r="20.83" style="fill:white;"/>
        <path d="M200.5,59.17C188.728,59.17 179.17,68.728 179.17,80.5C179.17,92.272 188.728,101.83 200.5,101.83C212.272,101.83 221.83,92.272 221.83,80.5C221.83,68.728 212.272,59.17 200.5,59.17ZM200.5,61.83C210.804,61.83 219.17,70.196 219.17,80.5C219.17,90.804 210.804,99.17 200.5,99.17C190.196,99.17 181.83,90.804 181.83,80.5C181.83,70.196 190.196,61.83 200.5,61.83Z" style="fill:white;"/>
        <circle cx="220.5" cy="220.5" r="20.83" style="fill:white;"/>
        <path d="M220.5,198.67C208.452,198.67 198.67,208.452 198.67,220.5C198.67,232.548 208.452,242.33 220.5,242.33C232.548,242.33 242.33,232.548 242.33,220.5C242.33,208.452 232.548,198.67 220.5,198.67ZM220.5,202.33C230.528,202.33 238.67,210.472 238.67,220.5C238.67,230.528 230.528,238.67 220.5,238.67C210.472,238.67 202.33,230.528 202.33,220.5C202.33,210.472 210.472,202.33 220.5,202.33Z" style="fill:white;"/>
        <circle cx="270.5" cy="150.5" r="10.83" style="fill:white;"/>
        <path d="M270.5,139.17C264.247,139.17 259.17,144.247 259.17,150.5C259.17,156.753 264.247,161.83 270.5,161.83C276.753,161.83 281.83,156.753 281.83,150.5C281.83,144.247 276.753,139.17 270.5,139.17ZM270.5,141.83C275.285,141.83 279.17,145.715 279.17,150.5C279.17,155.285 275.285,159.17 270.5,159.17C265.715,159.17 261.83,155.285 261.83,150.5C261.83,145.715 265.715,141.83 270.5,141.83Z" style="fill:white;"/>
        <circle cx="250.5" cy="250.5" r="10.83" style="fill:white;"/>
        <path d="M250.5,238.67C243.971,238.67 238.67,243.971 238.67,250.5C238.67,257.029 243.971,262.33 250.5,262.33C257.029,262.33 262.33,257.029 262.33,250.5C262.33,243.971 257.029,238.67 250.5,238.67ZM250.5,242.33C255.009,242.33 258.67,245.991 258.67,250.5C258.67,255.009 255.009,258.67 250.5,258.67C245.991,258.67 242.33,255.009 242.33,250.5C242.33,245.991 245.991,242.33 250.5,242.33Z" style="fill:white;"/>
        <circle cx="190.5" cy="10.5" r="10.83" style="fill:white;"/>
        <path d="M190.5,-0.83C184.247,-0.83 179.17,4.247 179.17,10.5C179.17,16.753 184.247,21.83 190.5,21.83C196.753,21.83 201.83,16.753 201.83,10.5C201.83,4.247 196.753,-0.83 190.5,-0.83ZM190.5,1.83C195.285,1.83 199.17,5.715 199.17,10.5C199.17,15.285 195.285,19.17 190.5,19.17C185.715,19.17 181.83,15.285 181.83,10.5C181.83,5.715 185.715,1.83 190.5,1.83Z" style="fill:white;"/>
        <circle cx="270.5" cy="50.5" r="10.83" style="fill:white;"/>
        <path d="M270.5,39.17C264.247,39.17 259.17,44.247 259.17,50.5C259.17,56.753 264.247,61.83 270.5,61.83C276.753,61.83 281.83,56.753 281.83,50.5C281.83,44.247 276.753,39.17 270.5,39.17ZM270.5,41.83C275.285,41.83 279.17,45.715 279.17,50.5C279.17,55.285 275.285,59.17 270.5,59.17C265.715,59.17 261.83,55.285 261.83,50.5C261.83,45.715 265.715,41.83 270.5,41.83Z" style="fill:white;"/>
        <path d="M86.87,161.83L154.13,161.83L154.166,161.825C154.325,161.798 154.96,161.649 154.96,160.977L154.958,159.934L154.95,159.88C154.893,159.478 154.548,159.17 154.13,159.17L86.87,159.17L86.87,160.83L86.04,160L86.04,160.977C86.04,161.743 86.864,161.83 86.87,161.83L86.87,161.83Z" style="fill:white;"/>
        <path d="M81.249,159.758C80.968,159.898 80.79,160.186 80.79,160.5C80.79,160.814 80.968,161.102 81.249,161.242L88.249,164.742C88.568,164.902 88.954,164.84 89.207,164.587C89.46,164.334 89.522,163.948 89.362,163.629L87.798,160.5C87.798,160.5 89.362,157.371 89.362,157.371C89.522,157.052 89.46,156.666 89.207,156.413C88.954,156.16 88.568,156.098 88.249,156.258L81.249,159.758Z" style="fill:white;fill-rule:nonzero;"/>
        <path d="M88.357,160.5L90.481,156.253C90.64,155.934 90.578,155.548 90.325,155.295C90.072,155.042 89.686,154.98 89.367,155.139L80.131,159.758C79.85,159.898 79.672,160.186 79.672,160.5C79.672,160.814 79.85,161.102 80.131,161.242L89.367,165.861C89.686,166.02 90.072,165.958 90.325,165.705C90.578,165.452 90.64,165.066 90.481,164.747L88.357,160.5ZM85.646,159.974L84.594,160.5L85.646,161.026L85.569,160.871C85.452,160.638 85.452,160.362 85.569,160.129L85.646,159.974ZM87.11,158.314L87.272,158.577L87.502,158.118L87.11,158.314Z" style="fill:white;"/>
        <path d="M159.751,161.242C160.032,161.102 160.21,160.814 160.21,160.5C160.21,160.186 160.032,159.898 159.751,159.758L152.751,156.258C152.432,156.098 152.046,156.16 151.793,156.413C151.54,156.666 151.478,157.052 151.638,157.371L153.202,160.5C153.202,160.5 151.638,163.629 151.638,163.629C151.478,163.948 151.54,164.334 151.793,164.587C152.046,164.84 152.432,164.902 152.751,164.742L159.751,161.242Z" style="fill:white;fill-rule:nonzero;"/>
        <path d="M152.643,160.5L150.519,164.747C150.36,165.066 150.422,165.452 150.675,165.705C150.928,165.958 151.314,166.02 151.633,165.861L160.869,161.242C161.15,161.102 161.328,160.814 161.328,160.5C161.328,160.186 161.15,159.898 160.869,159.758L151.633,155.139C151.314,154.98 150.928,155.042 150.675,155.295C150.422,155.548 150.36,155.934 150.519,156.253L152.643,160.5ZM155.354,161.026L156.406,160.5L155.354,159.974L155.431,160.129C155.548,160.362 155.548,160.638 155.431,160.871L155.354,161.026Z" style="fill:white;"/>
        <circle cx="80.5" cy="160.5" r="4.83" style="fill:white;"/>
        <path d="M91.33,150.5C91.33,150.042 90.958,149.67 90.5,149.67L70.5,149.67C70.042,149.67 69.67,150.042 69.67,150.5L69.67,170.5C69.67,170.958 70.042,171.33 70.5,171.33L90.5,171.33C90.958,171.33 91.33,170.958 91.33,170.5L91.33,150.5Z" style="fill:white;"/>
        <circle cx="160.5" cy="160.5" r="4.83" style="fill:white;"/>
        <g transform="matrix(1,0,0,1,3,16.164)">
            <path d="M121.409,137.739C121.464,137.232 121.61,136.74 121.987,137.142C122.013,137.17 122.134,137.298 122.157,137.324C122.723,137.927 121.915,138.506 121.641,138.675L121.63,138.686L122.252,138.348C121.894,138.901 121.528,139.306 121.169,139.578C120.689,139.941 120.251,140.082 119.888,140.082C119.382,140.082 118.969,139.87 118.662,139.419C118.504,139.188 118.315,138.821 118.102,138.312L117.939,137.919L117.53,139.349C117.434,139.682 117.142,139.919 116.801,139.947L115.76,139.95C115.5,139.95 115.255,139.829 115.099,139.622C114.942,139.415 114.891,139.146 114.961,138.896L116.99,131.658L116.314,130.729C116.314,130.729 116.382,130.512 116.382,130.512L116.729,130.981C116.61,130.579 116.612,130.177 117.08,130.156L117.065,129.933C117.352,129.895 117.602,129.858 117.816,129.823L118.684,129.627C118.844,129.598 118.954,129.59 119.012,129.59C119.332,129.59 119.556,129.719 119.716,129.895C119.852,130.044 119.962,130.253 119.962,130.552C119.962,130.598 119.958,130.643 119.951,130.688C119.928,130.822 119.9,130.941 119.867,131.043L119.112,133.69L119.264,133.928L119.336,133.859C119.336,133.859 119.316,133.919 119.3,133.983L119.457,134.229L119.533,134.171L119.537,133.864L119.528,133.864L119.537,133.845L119.545,133.034L119.624,133.039L119.624,132.83L122.024,132.83C122.482,132.83 122.854,133.202 122.854,133.66C122.854,133.739 122.843,133.816 122.821,133.889L122.765,134.093C122.591,134.721 121.964,134.706 121.964,134.706L121.928,134.706C121.637,134.706 121.306,134.908 120.894,135.221C120.894,135.221 119.942,135.947 119.942,135.947L120.552,137.404C120.605,137.345 120.657,137.281 120.703,137.218C120.647,137.295 120.606,137.381 120.58,137.47L120.688,137.695C120.745,137.616 120.802,137.533 120.86,137.444L121.154,137.987C121.226,137.904 121.3,137.809 121.376,137.704L121.409,137.739ZM121.334,138.216L121.302,138.258L121.375,138.394C121.375,138.329 121.377,138.245 121.38,138.152L121.334,138.216ZM120.547,137.664C120.544,137.729 120.548,137.795 120.561,137.859L120.673,137.714C120.634,137.687 120.591,137.672 120.547,137.664ZM117.264,137.261L117.164,137.613C117.237,137.635 117.314,137.646 117.392,137.646L117.264,137.261ZM118.342,136.72L118.09,136.908L118.146,137.077L118.156,137.07L118.36,136.764L118.342,136.72ZM119.044,133.926L118.972,134.179L119.125,134.055L119.044,133.926Z" style="fill:white;fill-rule:nonzero;"/>
        </g>
    </g>
    <g transform="matrix(0.4,0,0,0.4,2,2)">
        <g>
            <circle cx="80.5" cy="160.5" r="80" style="fill:none;stroke:black;stroke-width:1px;stroke-dasharray:12,12;"/>
            <circle cx="220.5" cy="220.5" r="80" style="fill:none;stroke:black;stroke-width:1px;stroke-dasharray:12,12;"/>
            <circle cx="160.5" cy="160.5" r="10" style="fill:rgb(225,213,231);stroke:rgb(150,115,166);stroke-width:2px;"/>
            <circle cx="80.5" cy="160.5" r="20" style="fill:rgb(248,206,204);stroke:rgb(184,84,80);stroke-width:2px;"/>
            <circle cx="200.5" cy="80.5" r="20" style="fill:rgb(213,232,212);stroke:rgb(130,179,102);stroke-width:1px;"/>
            <circle cx="220.5" cy="220.5" r="20" style="fill:rgb(248,206,204);stroke:rgb(184,84,80);stroke-width:2px;"/>
            <circle cx="270.5" cy="150.5" r="10" style="fill:rgb(225,213,231);stroke:rgb(150,115,166);stroke-width:1px;"/>
            <circle cx="250.5" cy="250.5" r="10" style="fill:rgb(225,213,231);stroke:rgb(150,115,166);stroke-width:2px;"/>
            <circle cx="190.5" cy="10.5" r="10" style="fill:rgb(225,213,231);stroke:rgb(150,115,166);stroke-width:1px;"/>
            <circle cx="270.5" cy="50.5" r="10" style="fill:rgb(225,213,231);stroke:rgb(150,115,166);stroke-width:1px;"/>
            <path d="M86.87,160.5L154.13,160.5" style="fill:none;fill-rule:nonzero;stroke:black;stroke-width:1px;stroke-miterlimit:10;"/>
            <path d="M81.62,160.5L88.62,157L86.87,160.5L88.62,164L81.62,160.5Z" style="fill-rule:nonzero;stroke:black;stroke-width:1px;stroke-miterlimit:10;"/>
            <path d="M159.38,160.5L152.38,164L154.13,160.5L152.38,157L159.38,160.5Z" style="fill-rule:nonzero;stroke:black;stroke-width:1px;stroke-miterlimit:10;"/>
            <circle cx="80.5" cy="160.5" r="4"/>
            <rect x="70.5" y="150.5" width="20" height="20" style="fill:none;"/>
            <circle cx="160.5" cy="160.5" r="4"/>
            <rect x="150.5" y="150.5" width="20" height="20" style="fill:none;"/>
            <g transform="matrix(1,0,0,1,3,16.164)">
                <path d="M119.888,139.252C119.664,139.252 119.484,139.152 119.348,138.952C119.212,138.752 119.052,138.432 118.868,137.992L118.148,136.252L117.392,136.816L116.732,139.12L115.76,139.12L117.836,131.716C117.876,131.58 117.896,131.46 117.896,131.356C117.896,131.196 117.85,131.094 117.758,131.05C117.666,131.006 117.504,130.984 117.272,130.984L117.104,130.984L117.176,130.756C117.472,130.716 117.73,130.678 117.95,130.642C118.17,130.606 118.352,130.568 118.496,130.528C118.632,130.488 118.744,130.46 118.832,130.444C118.92,130.428 118.98,130.42 119.012,130.42C119.092,130.42 119.132,130.464 119.132,130.552C119.116,130.648 119.096,130.732 119.072,130.804L117.5,136.312L119.48,134.836C119.896,134.524 120.104,134.284 120.104,134.116C120.104,133.956 119.912,133.872 119.528,133.864L119.624,133.66L122.024,133.66L121.964,133.876L121.928,133.876C121.504,133.876 120.992,134.104 120.392,134.56L118.928,135.676L119.828,137.824C119.9,138 119.986,138.154 120.086,138.286C120.186,138.418 120.3,138.484 120.428,138.484C120.684,138.484 121,138.224 121.376,137.704L121.556,137.896C121.26,138.352 120.964,138.692 120.668,138.916C120.372,139.14 120.112,139.252 119.888,139.252Z" style="fill-rule:nonzero;"/>
            </g>
        </g>
    </g>
</svg>
